<mxfile host="Electron" modified="2024-11-04T18:05:02.813Z" agent="Mozilla/5.0 (Macintosh; Intel Mac OS X 10_15_7) AppleWebKit/537.36 (KHTML, like Gecko) draw.io/24.6.4 Chrome/124.0.6367.207 Electron/30.0.6 Safari/537.36" etag="1ZLwwgDnjvZQ7ZXcAvii" version="24.6.4" type="device">
  <diagram id="kIwlY32RSeNs6Q6oYAqt" name="Page-1">
    <mxGraphModel dx="2868" dy="2054" grid="1" gridSize="10" guides="1" tooltips="1" connect="1" arrows="1" fold="1" page="1" pageScale="1" pageWidth="827" pageHeight="1169" math="1" shadow="0">
      <root>
        <mxCell id="0" />
        <mxCell id="1" parent="0" />
        <mxCell id="16p-zsdsdj_W6NwrwIpp-1" style="rounded=0;orthogonalLoop=1;jettySize=auto;html=1;exitX=0;exitY=1;exitDx=0;exitDy=0;entryX=0.5;entryY=0;entryDx=0;entryDy=0;fontFamily=Lato;fontSource=https%3A%2F%2Ffonts.googleapis.com%2Fcss%3Ffamily%3DLato;fontSize=38;strokeWidth=2;opacity=80;" parent="1" source="16p-zsdsdj_W6NwrwIpp-3" target="16p-zsdsdj_W6NwrwIpp-6" edge="1">
          <mxGeometry relative="1" as="geometry" />
        </mxCell>
        <mxCell id="16p-zsdsdj_W6NwrwIpp-2" style="edgeStyle=none;rounded=0;orthogonalLoop=1;jettySize=auto;html=1;exitX=1;exitY=1;exitDx=0;exitDy=0;entryX=0.5;entryY=0;entryDx=0;entryDy=0;fontFamily=Lato;fontSource=https%3A%2F%2Ffonts.googleapis.com%2Fcss%3Ffamily%3DLato;fontSize=38;strokeWidth=2;opacity=80;" parent="1" source="16p-zsdsdj_W6NwrwIpp-3" target="16p-zsdsdj_W6NwrwIpp-8" edge="1">
          <mxGeometry relative="1" as="geometry" />
        </mxCell>
        <mxCell id="16p-zsdsdj_W6NwrwIpp-3" value="root" style="ellipse;whiteSpace=wrap;html=1;strokeColor=#82b366;fillColor=#d5e8d4;fontFamily=Lato;fontSource=https%3A%2F%2Ffonts.googleapis.com%2Fcss%3Ffamily%3DLato;fontSize=38;opacity=80;" parent="1" vertex="1">
          <mxGeometry x="1160" y="444.48" width="180" height="90" as="geometry" />
        </mxCell>
        <mxCell id="16p-zsdsdj_W6NwrwIpp-4" style="edgeStyle=none;rounded=0;orthogonalLoop=1;jettySize=auto;html=1;exitX=0;exitY=1;exitDx=0;exitDy=0;entryX=0.5;entryY=0;entryDx=0;entryDy=0;fontSize=38;fontFamily=Lato;fontSource=https%3A%2F%2Ffonts.googleapis.com%2Fcss%3Ffamily%3DLato;strokeWidth=2;opacity=80;" parent="1" source="16p-zsdsdj_W6NwrwIpp-6" target="16p-zsdsdj_W6NwrwIpp-10" edge="1">
          <mxGeometry relative="1" as="geometry" />
        </mxCell>
        <mxCell id="16p-zsdsdj_W6NwrwIpp-5" style="edgeStyle=none;rounded=0;orthogonalLoop=1;jettySize=auto;html=1;entryX=0;entryY=0.5;entryDx=0;entryDy=0;fontSize=38;fontFamily=Lato;fontSource=https%3A%2F%2Ffonts.googleapis.com%2Fcss%3Ffamily%3DLato;strokeWidth=2;opacity=80;" parent="1" source="16p-zsdsdj_W6NwrwIpp-6" target="16p-zsdsdj_W6NwrwIpp-8" edge="1">
          <mxGeometry relative="1" as="geometry" />
        </mxCell>
        <mxCell id="16p-zsdsdj_W6NwrwIpp-6" value="function declaration" style="ellipse;whiteSpace=wrap;html=1;strokeColor=#82b366;fillColor=#d5e8d4;fontFamily=Lato;fontSource=https%3A%2F%2Ffonts.googleapis.com%2Fcss%3Ffamily%3DLato;fontSize=38;opacity=80;" parent="1" vertex="1">
          <mxGeometry x="900" y="586.49" width="240" height="130" as="geometry" />
        </mxCell>
        <mxCell id="16p-zsdsdj_W6NwrwIpp-7" style="edgeStyle=none;rounded=0;orthogonalLoop=1;jettySize=auto;html=1;exitX=0;exitY=1;exitDx=0;exitDy=0;entryX=0.5;entryY=0;entryDx=0;entryDy=0;fontSize=38;endArrow=classic;endFill=1;fontFamily=Lato;fontSource=https%3A%2F%2Ffonts.googleapis.com%2Fcss%3Ffamily%3DLato;strokeWidth=2;opacity=80;" parent="1" source="16p-zsdsdj_W6NwrwIpp-8" target="16p-zsdsdj_W6NwrwIpp-12" edge="1">
          <mxGeometry relative="1" as="geometry" />
        </mxCell>
        <mxCell id="16p-zsdsdj_W6NwrwIpp-8" value="function declaration" style="ellipse;whiteSpace=wrap;html=1;strokeColor=#82b366;fillColor=#d5e8d4;fontFamily=Lato;fontSource=https%3A%2F%2Ffonts.googleapis.com%2Fcss%3Ffamily%3DLato;fontSize=38;opacity=80;" parent="1" vertex="1">
          <mxGeometry x="1380" y="586.49" width="240" height="130" as="geometry" />
        </mxCell>
        <mxCell id="16p-zsdsdj_W6NwrwIpp-9" style="edgeStyle=none;rounded=0;orthogonalLoop=1;jettySize=auto;html=1;entryX=0.5;entryY=0;entryDx=0;entryDy=0;fontFamily=Lato;fontSource=https%3A%2F%2Ffonts.googleapis.com%2Fcss%3Ffamily%3DLato;fontSize=38;strokeWidth=2;opacity=80;" parent="1" source="16p-zsdsdj_W6NwrwIpp-10" target="16p-zsdsdj_W6NwrwIpp-56" edge="1">
          <mxGeometry relative="1" as="geometry">
            <mxPoint x="990" y="844.48" as="targetPoint" />
          </mxGeometry>
        </mxCell>
        <mxCell id="16p-zsdsdj_W6NwrwIpp-10" value="name" style="ellipse;whiteSpace=wrap;html=1;strokeColor=#82b366;fillColor=#d5e8d4;fontFamily=Lato;fontSource=https%3A%2F%2Ffonts.googleapis.com%2Fcss%3Ffamily%3DLato;fontSize=38;opacity=80;" parent="1" vertex="1">
          <mxGeometry x="760" y="774.48" width="180" height="90" as="geometry" />
        </mxCell>
        <mxCell id="16p-zsdsdj_W6NwrwIpp-11" style="edgeStyle=none;rounded=0;orthogonalLoop=1;jettySize=auto;html=1;exitX=0.5;exitY=1;exitDx=0;exitDy=0;entryX=0.5;entryY=0;entryDx=0;entryDy=0;fontFamily=Lato;fontSource=https%3A%2F%2Ffonts.googleapis.com%2Fcss%3Ffamily%3DLato;fontSize=38;strokeWidth=2;opacity=80;" parent="1" source="16p-zsdsdj_W6NwrwIpp-12" target="16p-zsdsdj_W6NwrwIpp-57" edge="1">
          <mxGeometry relative="1" as="geometry">
            <mxPoint x="1310" y="844.48" as="targetPoint" />
          </mxGeometry>
        </mxCell>
        <mxCell id="16p-zsdsdj_W6NwrwIpp-12" value="name" style="ellipse;whiteSpace=wrap;html=1;strokeColor=#82b366;fillColor=#d5e8d4;fontFamily=Lato;fontSource=https%3A%2F%2Ffonts.googleapis.com%2Fcss%3Ffamily%3DLato;fontSize=38;opacity=80;" parent="1" vertex="1">
          <mxGeometry x="1230" y="774.48" width="180" height="90" as="geometry" />
        </mxCell>
        <mxCell id="16p-zsdsdj_W6NwrwIpp-13" value="$$h_a^{root}$$" style="text;html=1;strokeColor=none;fillColor=none;align=center;verticalAlign=middle;whiteSpace=wrap;rounded=0;fontSize=38;fontFamily=Lato;fontSource=https%3A%2F%2Ffonts.googleapis.com%2Fcss%3Ffamily%3DLato;opacity=80;" parent="1" vertex="1">
          <mxGeometry x="1090" y="510.48" width="40" height="20" as="geometry" />
        </mxCell>
        <mxCell id="16p-zsdsdj_W6NwrwIpp-14" value="$$h_a^{root}$$" style="text;html=1;strokeColor=none;fillColor=none;align=center;verticalAlign=middle;whiteSpace=wrap;rounded=0;fontSize=38;fontFamily=Lato;fontSource=https%3A%2F%2Ffonts.googleapis.com%2Fcss%3Ffamily%3DLato;opacity=80;" parent="1" vertex="1">
          <mxGeometry x="1390" y="504.48" width="40" height="20" as="geometry" />
        </mxCell>
        <mxCell id="16p-zsdsdj_W6NwrwIpp-15" value="" style="endArrow=classic;html=1;fontSize=38;entryX=0.5;entryY=0;entryDx=0;entryDy=0;fontFamily=Lato;fontSource=https%3A%2F%2Ffonts.googleapis.com%2Fcss%3Ffamily%3DLato;strokeWidth=2;opacity=80;" parent="1" target="16p-zsdsdj_W6NwrwIpp-3" edge="1">
          <mxGeometry width="50" height="50" relative="1" as="geometry">
            <mxPoint x="1250" y="394.48" as="sourcePoint" />
            <mxPoint x="1190" y="524.48" as="targetPoint" />
          </mxGeometry>
        </mxCell>
        <mxCell id="16p-zsdsdj_W6NwrwIpp-16" value="$$h_a^{z}$$" style="text;html=1;strokeColor=none;fillColor=none;align=center;verticalAlign=middle;whiteSpace=wrap;rounded=0;fontSize=38;fontFamily=Lato;fontSource=https%3A%2F%2Ffonts.googleapis.com%2Fcss%3Ffamily%3DLato;opacity=80;" parent="1" vertex="1">
          <mxGeometry x="1260" y="404.48" width="40" height="20" as="geometry" />
        </mxCell>
        <mxCell id="16p-zsdsdj_W6NwrwIpp-17" value="$$h_f^{func\ decl}$$" style="text;html=1;strokeColor=none;fillColor=none;align=center;verticalAlign=middle;whiteSpace=wrap;rounded=0;fontSize=38;fontFamily=Lato;fontSource=https%3A%2F%2Ffonts.googleapis.com%2Fcss%3Ffamily%3DLato;opacity=80;" parent="1" vertex="1">
          <mxGeometry x="1245.74" y="606.47" width="40" height="20" as="geometry" />
        </mxCell>
        <mxCell id="16p-zsdsdj_W6NwrwIpp-18" value="$$h_a^{func\ decl}$$" style="text;html=1;strokeColor=none;fillColor=none;align=center;verticalAlign=middle;whiteSpace=wrap;rounded=0;fontSize=38;fontFamily=Lato;fontSource=https%3A%2F%2Ffonts.googleapis.com%2Fcss%3Ffamily%3DLato;opacity=80;" parent="1" vertex="1">
          <mxGeometry x="1430" y="742.48" width="40" height="20" as="geometry" />
        </mxCell>
        <mxCell id="16p-zsdsdj_W6NwrwIpp-19" value="$$h_a^{func\ decl}$$" style="text;html=1;strokeColor=none;fillColor=none;align=center;verticalAlign=middle;whiteSpace=wrap;rounded=0;fontSize=38;fontFamily=Lato;fontSource=https%3A%2F%2Ffonts.googleapis.com%2Fcss%3Ffamily%3DLato;opacity=80;" parent="1" vertex="1">
          <mxGeometry x="960" y="742.48" width="40" height="20" as="geometry" />
        </mxCell>
        <mxCell id="16p-zsdsdj_W6NwrwIpp-20" value="" style="endArrow=none;dashed=1;html=1;dashPattern=1 3;strokeWidth=2;fontSize=38;exitX=0.334;exitY=0.032;exitDx=0;exitDy=0;exitPerimeter=0;fillColor=#e51400;startArrow=classic;startFill=1;fontFamily=Lato;fontSource=https%3A%2F%2Ffonts.googleapis.com%2Fcss%3Ffamily%3DLato;opacity=80;" parent="1" source="16p-zsdsdj_W6NwrwIpp-12" edge="1">
          <mxGeometry width="50" height="50" relative="1" as="geometry">
            <mxPoint x="1277.24" y="776.48" as="sourcePoint" />
            <mxPoint x="1250" y="654.48" as="targetPoint" />
          </mxGeometry>
        </mxCell>
        <mxCell id="16p-zsdsdj_W6NwrwIpp-21" value="" style="shape=cross;whiteSpace=wrap;html=1;fontSize=38;strokeColor=#B20000;fillColor=#e51400;size=0.06249999999999574;fontColor=#ffffff;rotation=45;fontFamily=Lato;fontSource=https%3A%2F%2Ffonts.googleapis.com%2Fcss%3Ffamily%3DLato;opacity=80;" parent="1" vertex="1">
          <mxGeometry x="1255" y="695.02" width="25.49" height="27.47" as="geometry" />
        </mxCell>
        <mxCell id="16p-zsdsdj_W6NwrwIpp-22" value="$$h_a^{name}$$" style="text;html=1;strokeColor=none;fillColor=none;align=center;verticalAlign=middle;whiteSpace=wrap;rounded=0;fontSize=38;fontFamily=Lato;fontSource=https%3A%2F%2Ffonts.googleapis.com%2Fcss%3Ffamily%3DLato;opacity=80;" parent="1" vertex="1">
          <mxGeometry x="890" y="884.48" width="40" height="20" as="geometry" />
        </mxCell>
        <mxCell id="16p-zsdsdj_W6NwrwIpp-23" value="$$h_a^{name}$$" style="text;html=1;strokeColor=none;fillColor=none;align=center;verticalAlign=middle;whiteSpace=wrap;rounded=0;fontSize=38;fontFamily=Lato;fontSource=https%3A%2F%2Ffonts.googleapis.com%2Fcss%3Ffamily%3DLato;opacity=80;" parent="1" vertex="1">
          <mxGeometry x="1360" y="884.48" width="40" height="20" as="geometry" />
        </mxCell>
        <mxCell id="16p-zsdsdj_W6NwrwIpp-24" style="rounded=0;orthogonalLoop=1;jettySize=auto;html=1;exitX=0;exitY=1;exitDx=0;exitDy=0;entryX=0.5;entryY=0;entryDx=0;entryDy=0;fontFamily=Lato;fontSource=https%3A%2F%2Ffonts.googleapis.com%2Fcss%3Ffamily%3DLato;fontSize=38;strokeWidth=2;" parent="1" source="16p-zsdsdj_W6NwrwIpp-26" target="16p-zsdsdj_W6NwrwIpp-62" edge="1">
          <mxGeometry relative="1" as="geometry">
            <mxPoint x="1029" y="1310" as="targetPoint" />
          </mxGeometry>
        </mxCell>
        <mxCell id="16p-zsdsdj_W6NwrwIpp-25" style="edgeStyle=none;rounded=0;orthogonalLoop=1;jettySize=auto;html=1;exitX=1;exitY=1;exitDx=0;exitDy=0;entryX=0.5;entryY=0;entryDx=0;entryDy=0;fontFamily=Lato;fontSource=https%3A%2F%2Ffonts.googleapis.com%2Fcss%3Ffamily%3DLato;fontSize=38;strokeWidth=2;" parent="1" source="16p-zsdsdj_W6NwrwIpp-26" target="16p-zsdsdj_W6NwrwIpp-61" edge="1">
          <mxGeometry relative="1" as="geometry">
            <mxPoint x="1479" y="1309.9999999999998" as="targetPoint" />
          </mxGeometry>
        </mxCell>
        <mxCell id="16p-zsdsdj_W6NwrwIpp-26" value="root" style="ellipse;whiteSpace=wrap;html=1;strokeColor=#000000;fillColor=#ffffff;fontFamily=Lato;fontSource=https%3A%2F%2Ffonts.googleapis.com%2Fcss%3Ffamily%3DLato;fontSize=38;" parent="1" vertex="1">
          <mxGeometry x="1149" y="1170" width="180" height="90" as="geometry" />
        </mxCell>
        <mxCell id="16p-zsdsdj_W6NwrwIpp-27" style="edgeStyle=none;rounded=0;orthogonalLoop=1;jettySize=auto;html=1;exitX=0.5;exitY=1;exitDx=0;exitDy=0;entryX=0.5;entryY=0;entryDx=0;entryDy=0;fontSize=38;fontFamily=Lato;fontSource=https%3A%2F%2Ffonts.googleapis.com%2Fcss%3Ffamily%3DLato;strokeWidth=2;" parent="1" source="16p-zsdsdj_W6NwrwIpp-62" target="16p-zsdsdj_W6NwrwIpp-64" edge="1">
          <mxGeometry relative="1" as="geometry">
            <mxPoint x="965.3603896932159" y="1386.8198051533918" as="sourcePoint" />
            <mxPoint x="889.0000000000005" y="1503.1800000000003" as="targetPoint" />
          </mxGeometry>
        </mxCell>
        <mxCell id="16p-zsdsdj_W6NwrwIpp-28" style="edgeStyle=none;rounded=0;orthogonalLoop=1;jettySize=auto;html=1;entryX=0;entryY=0.5;entryDx=0;entryDy=0;fontSize=38;fontFamily=Lato;fontSource=https%3A%2F%2Ffonts.googleapis.com%2Fcss%3Ffamily%3DLato;exitX=0.995;exitY=0.46;exitDx=0;exitDy=0;exitPerimeter=0;strokeWidth=2;" parent="1" source="16p-zsdsdj_W6NwrwIpp-62" target="16p-zsdsdj_W6NwrwIpp-61" edge="1">
          <mxGeometry relative="1" as="geometry">
            <mxPoint x="1119" y="1355" as="sourcePoint" />
            <mxPoint x="1389.000000000014" y="1354.9999999999998" as="targetPoint" />
          </mxGeometry>
        </mxCell>
        <mxCell id="16p-zsdsdj_W6NwrwIpp-29" style="edgeStyle=none;rounded=0;orthogonalLoop=1;jettySize=auto;html=1;exitX=0;exitY=1;exitDx=0;exitDy=0;entryX=0.5;entryY=0;entryDx=0;entryDy=0;fontSize=38;endArrow=classic;endFill=1;fontFamily=Lato;fontSource=https%3A%2F%2Ffonts.googleapis.com%2Fcss%3Ffamily%3DLato;strokeWidth=2;" parent="1" target="16p-zsdsdj_W6NwrwIpp-66" edge="1">
          <mxGeometry relative="1" as="geometry">
            <mxPoint x="1415.36038969323" y="1386.8198051533848" as="sourcePoint" />
            <mxPoint x="1350.0000000000005" y="1503.1800000000003" as="targetPoint" />
          </mxGeometry>
        </mxCell>
        <mxCell id="16p-zsdsdj_W6NwrwIpp-30" value="$$h_a^{root}$$" style="text;html=1;strokeColor=none;fillColor=none;align=center;verticalAlign=middle;whiteSpace=wrap;rounded=0;fontSize=38;fontFamily=Lato;fontSource=https%3A%2F%2Ffonts.googleapis.com%2Fcss%3Ffamily%3DLato;" parent="1" vertex="1">
          <mxGeometry x="1046" y="1228.99" width="40" height="20" as="geometry" />
        </mxCell>
        <mxCell id="16p-zsdsdj_W6NwrwIpp-31" value="$$h_a^{root}$$" style="text;html=1;strokeColor=none;fillColor=none;align=center;verticalAlign=middle;whiteSpace=wrap;rounded=0;fontSize=38;fontFamily=Lato;fontSource=https%3A%2F%2Ffonts.googleapis.com%2Fcss%3Ffamily%3DLato;" parent="1" vertex="1">
          <mxGeometry x="1403" y="1226.99" width="40" height="20" as="geometry" />
        </mxCell>
        <mxCell id="16p-zsdsdj_W6NwrwIpp-32" value="" style="endArrow=classic;html=1;fontSize=38;entryX=0.5;entryY=0;entryDx=0;entryDy=0;fontFamily=Lato;fontSource=https%3A%2F%2Ffonts.googleapis.com%2Fcss%3Ffamily%3DLato;strokeWidth=2;" parent="1" target="16p-zsdsdj_W6NwrwIpp-26" edge="1">
          <mxGeometry width="50" height="50" relative="1" as="geometry">
            <mxPoint x="1239" y="1120" as="sourcePoint" />
            <mxPoint x="1179" y="1250" as="targetPoint" />
          </mxGeometry>
        </mxCell>
        <mxCell id="16p-zsdsdj_W6NwrwIpp-33" value="$$h_a^{z}$$" style="text;html=1;strokeColor=none;fillColor=none;align=center;verticalAlign=middle;whiteSpace=wrap;rounded=0;fontSize=38;fontFamily=Lato;fontSource=https%3A%2F%2Ffonts.googleapis.com%2Fcss%3Ffamily%3DLato;" parent="1" vertex="1">
          <mxGeometry x="1249" y="1130" width="40" height="20" as="geometry" />
        </mxCell>
        <mxCell id="16p-zsdsdj_W6NwrwIpp-34" value="$$h_f^{func\ decl}$$" style="text;html=1;strokeColor=none;fillColor=none;align=center;verticalAlign=middle;whiteSpace=wrap;rounded=0;fontSize=38;fontFamily=Lato;fontSource=https%3A%2F%2Ffonts.googleapis.com%2Fcss%3Ffamily%3DLato;" parent="1" vertex="1">
          <mxGeometry x="1229" y="1308.99" width="40" height="20" as="geometry" />
        </mxCell>
        <mxCell id="16p-zsdsdj_W6NwrwIpp-35" value="$$h_a^{func\ decl}$$" style="text;html=1;strokeColor=none;fillColor=none;align=center;verticalAlign=middle;whiteSpace=wrap;rounded=0;fontSize=38;fontFamily=Lato;fontSource=https%3A%2F%2Ffonts.googleapis.com%2Fcss%3Ffamily%3DLato;" parent="1" vertex="1">
          <mxGeometry x="1443" y="1442.99" width="40" height="20" as="geometry" />
        </mxCell>
        <mxCell id="16p-zsdsdj_W6NwrwIpp-36" value="$$h_a^{func\ decl}$$" style="text;html=1;strokeColor=none;fillColor=none;align=center;verticalAlign=middle;whiteSpace=wrap;rounded=0;fontSize=38;fontFamily=Lato;fontSource=https%3A%2F%2Ffonts.googleapis.com%2Fcss%3Ffamily%3DLato;" parent="1" vertex="1">
          <mxGeometry x="970" y="1475" width="40" height="20" as="geometry" />
        </mxCell>
        <mxCell id="16p-zsdsdj_W6NwrwIpp-37" value="$$h_a^{name}$$" style="text;html=1;strokeColor=none;fillColor=none;align=center;verticalAlign=middle;whiteSpace=wrap;rounded=0;fontSize=38;fontFamily=Lato;fontSource=https%3A%2F%2Ffonts.googleapis.com%2Fcss%3Ffamily%3DLato;" parent="1" vertex="1">
          <mxGeometry x="959" y="1632.99" width="40" height="20" as="geometry" />
        </mxCell>
        <mxCell id="16p-zsdsdj_W6NwrwIpp-38" value="$$h_a^{name}$$" style="text;html=1;strokeColor=none;fillColor=none;align=center;verticalAlign=middle;whiteSpace=wrap;rounded=0;fontSize=38;fontFamily=Lato;fontSource=https%3A%2F%2Ffonts.googleapis.com%2Fcss%3Ffamily%3DLato;" parent="1" vertex="1">
          <mxGeometry x="1371" y="1632.99" width="40" height="20" as="geometry" />
        </mxCell>
        <mxCell id="16p-zsdsdj_W6NwrwIpp-39" value="$$+$$" style="ellipse;whiteSpace=wrap;html=1;aspect=fixed;fontSize=18;strokeColor=#666666;fillColor=#f5f5f5;fontColor=#333333;fontFamily=Lato;fontSource=https%3A%2F%2Ffonts.googleapis.com%2Fcss%3Ffamily%3DLato;fontStyle=0" parent="1" vertex="1">
          <mxGeometry x="1340.0100000000002" y="1472" width="25.99" height="25.99" as="geometry" />
        </mxCell>
        <mxCell id="16p-zsdsdj_W6NwrwIpp-40" style="edgeStyle=orthogonalEdgeStyle;rounded=0;orthogonalLoop=1;jettySize=auto;html=1;fontSize=38;startArrow=none;startFill=0;endArrow=classic;endFill=1;strokeColor=#000000;strokeWidth=2;fontFamily=Lato;fontSource=https%3A%2F%2Ffonts.googleapis.com%2Fcss%3Ffamily%3DLato;" parent="1" source="16p-zsdsdj_W6NwrwIpp-41" target="16p-zsdsdj_W6NwrwIpp-53" edge="1">
          <mxGeometry relative="1" as="geometry">
            <Array as="points" />
          </mxGeometry>
        </mxCell>
        <mxCell id="16p-zsdsdj_W6NwrwIpp-41" value="$$\sigma$$" style="rounded=0;whiteSpace=wrap;html=1;fontSize=31;strokeColor=#666666;fillColor=#f5f5f5;fontColor=#333333;fontFamily=Lato;fontSource=https%3A%2F%2Ffonts.googleapis.com%2Fcss%3Ffamily%3DLato;" parent="1" vertex="1">
          <mxGeometry x="1249" y="1418.99" width="40" height="36.99" as="geometry" />
        </mxCell>
        <mxCell id="16p-zsdsdj_W6NwrwIpp-42" style="edgeStyle=orthogonalEdgeStyle;rounded=0;orthogonalLoop=1;jettySize=auto;html=1;entryX=0;entryY=0.5;entryDx=0;entryDy=0;fontSize=38;startArrow=none;startFill=0;endArrow=classic;endFill=1;strokeColor=#000000;strokeWidth=2;exitX=0.5;exitY=1;exitDx=0;exitDy=0;fontFamily=Lato;fontSource=https%3A%2F%2Ffonts.googleapis.com%2Fcss%3Ffamily%3DLato;" parent="1" source="16p-zsdsdj_W6NwrwIpp-43" target="16p-zsdsdj_W6NwrwIpp-53" edge="1">
          <mxGeometry relative="1" as="geometry">
            <Array as="points">
              <mxPoint x="1156" y="1485" />
            </Array>
          </mxGeometry>
        </mxCell>
        <mxCell id="16p-zsdsdj_W6NwrwIpp-43" value="$$tanh$$" style="rounded=0;whiteSpace=wrap;html=1;fontSize=32;strokeColor=#666666;fillColor=#f5f5f5;fontColor=#333333;fontFamily=Lato;fontSource=https%3A%2F%2Ffonts.googleapis.com%2Fcss%3Ffamily%3DLato;" parent="1" vertex="1">
          <mxGeometry x="1109.4899999999998" y="1418.99" width="93.01" height="36.99" as="geometry" />
        </mxCell>
        <mxCell id="16p-zsdsdj_W6NwrwIpp-44" style="edgeStyle=none;rounded=0;orthogonalLoop=1;jettySize=auto;html=1;fontSize=38;startArrow=classic;startFill=1;endArrow=none;endFill=0;strokeColor=#000000;strokeWidth=2;fontFamily=Lato;fontSource=https%3A%2F%2Ffonts.googleapis.com%2Fcss%3Ffamily%3DLato;" parent="1" source="16p-zsdsdj_W6NwrwIpp-46" edge="1">
          <mxGeometry relative="1" as="geometry">
            <mxPoint x="1156" y="1355" as="targetPoint" />
          </mxGeometry>
        </mxCell>
        <mxCell id="16p-zsdsdj_W6NwrwIpp-45" style="edgeStyle=none;rounded=0;orthogonalLoop=1;jettySize=auto;html=1;fontSize=38;startArrow=none;startFill=0;endArrow=classic;endFill=1;strokeColor=#000000;strokeWidth=2;fontFamily=Lato;fontSource=https%3A%2F%2Ffonts.googleapis.com%2Fcss%3Ffamily%3DLato;" parent="1" source="16p-zsdsdj_W6NwrwIpp-46" target="16p-zsdsdj_W6NwrwIpp-43" edge="1">
          <mxGeometry relative="1" as="geometry">
            <mxPoint x="1175.995" y="1430" as="targetPoint" />
          </mxGeometry>
        </mxCell>
        <mxCell id="16p-zsdsdj_W6NwrwIpp-46" value="$$*$$" style="ellipse;whiteSpace=wrap;html=1;aspect=fixed;fontSize=23;strokeColor=#666666;fillColor=#f5f5f5;fontColor=#333333;fontFamily=Lato;fontSource=https%3A%2F%2Ffonts.googleapis.com%2Fcss%3Ffamily%3DLato;" parent="1" vertex="1">
          <mxGeometry x="1143" y="1375" width="25.99" height="25.99" as="geometry" />
        </mxCell>
        <mxCell id="16p-zsdsdj_W6NwrwIpp-47" style="edgeStyle=none;rounded=0;orthogonalLoop=1;jettySize=auto;html=1;fontSize=38;startArrow=classic;startFill=1;endArrow=none;endFill=0;strokeColor=#000000;strokeWidth=2;fontFamily=Lato;fontSource=https%3A%2F%2Ffonts.googleapis.com%2Fcss%3Ffamily%3DLato;" parent="1" source="16p-zsdsdj_W6NwrwIpp-49" edge="1">
          <mxGeometry relative="1" as="geometry">
            <mxPoint x="1269" y="1355" as="targetPoint" />
          </mxGeometry>
        </mxCell>
        <mxCell id="16p-zsdsdj_W6NwrwIpp-48" style="edgeStyle=none;rounded=0;orthogonalLoop=1;jettySize=auto;html=1;fontSize=38;startArrow=none;startFill=0;endArrow=classic;endFill=1;strokeColor=#000000;strokeWidth=2;fontFamily=Lato;fontSource=https%3A%2F%2Ffonts.googleapis.com%2Fcss%3Ffamily%3DLato;" parent="1" source="16p-zsdsdj_W6NwrwIpp-49" target="16p-zsdsdj_W6NwrwIpp-41" edge="1">
          <mxGeometry relative="1" as="geometry" />
        </mxCell>
        <mxCell id="16p-zsdsdj_W6NwrwIpp-49" value="$$*$$" style="ellipse;whiteSpace=wrap;html=1;aspect=fixed;fontSize=23;strokeColor=#666666;fillColor=#f5f5f5;fontColor=#333333;fontFamily=Lato;fontSource=https%3A%2F%2Ffonts.googleapis.com%2Fcss%3Ffamily%3DLato;" parent="1" vertex="1">
          <mxGeometry x="1256" y="1375" width="25.99" height="25.99" as="geometry" />
        </mxCell>
        <mxCell id="16p-zsdsdj_W6NwrwIpp-50" style="edgeStyle=none;rounded=0;orthogonalLoop=1;jettySize=auto;html=1;exitX=0.25;exitY=0;exitDx=0;exitDy=0;fontSize=38;startArrow=classic;startFill=1;endArrow=none;endFill=0;strokeColor=#000000;strokeWidth=1;fontFamily=Lato;fontSource=https%3A%2F%2Ffonts.googleapis.com%2Fcss%3Ffamily%3DLato;" parent="1" source="16p-zsdsdj_W6NwrwIpp-31" target="16p-zsdsdj_W6NwrwIpp-31" edge="1">
          <mxGeometry relative="1" as="geometry" />
        </mxCell>
        <mxCell id="16p-zsdsdj_W6NwrwIpp-51" style="edgeStyle=none;rounded=0;orthogonalLoop=1;jettySize=auto;html=1;exitX=0.25;exitY=0;exitDx=0;exitDy=0;fontSize=38;startArrow=classic;startFill=1;endArrow=none;endFill=0;strokeColor=#000000;strokeWidth=1;fontFamily=Lato;fontSource=https%3A%2F%2Ffonts.googleapis.com%2Fcss%3Ffamily%3DLato;" parent="1" edge="1">
          <mxGeometry relative="1" as="geometry">
            <mxPoint x="1391" y="1243" as="sourcePoint" />
            <mxPoint x="1391" y="1243" as="targetPoint" />
          </mxGeometry>
        </mxCell>
        <mxCell id="16p-zsdsdj_W6NwrwIpp-52" style="rounded=0;orthogonalLoop=1;jettySize=auto;html=1;entryX=0;entryY=0.5;entryDx=0;entryDy=0;fontSize=38;startArrow=none;startFill=0;endArrow=classic;endFill=1;strokeColor=#000000;strokeWidth=2;fontFamily=Lato;fontSource=https%3A%2F%2Ffonts.googleapis.com%2Fcss%3Ffamily%3DLato;" parent="1" source="16p-zsdsdj_W6NwrwIpp-53" target="16p-zsdsdj_W6NwrwIpp-39" edge="1">
          <mxGeometry relative="1" as="geometry" />
        </mxCell>
        <mxCell id="16p-zsdsdj_W6NwrwIpp-53" value="$$*$$" style="ellipse;whiteSpace=wrap;html=1;aspect=fixed;fontSize=23;strokeColor=#666666;fillColor=#f5f5f5;fontColor=#333333;fontFamily=Lato;fontSource=https%3A%2F%2Ffonts.googleapis.com%2Fcss%3Ffamily%3DLato;" parent="1" vertex="1">
          <mxGeometry x="1256" y="1472.99" width="25.99" height="25.99" as="geometry" />
        </mxCell>
        <mxCell id="16p-zsdsdj_W6NwrwIpp-54" value="$$W_m$$" style="text;html=1;strokeColor=none;fillColor=none;align=center;verticalAlign=middle;whiteSpace=wrap;rounded=0;fontSize=28;fontFamily=Lato;fontSource=https%3A%2F%2Ffonts.googleapis.com%2Fcss%3Ffamily%3DLato;" parent="1" vertex="1">
          <mxGeometry x="1296.0100000000002" y="1379.99" width="40" height="20" as="geometry" />
        </mxCell>
        <mxCell id="16p-zsdsdj_W6NwrwIpp-55" value="$$W_a$$" style="text;html=1;strokeColor=none;fillColor=none;align=center;verticalAlign=middle;whiteSpace=wrap;rounded=0;fontSize=28;fontFamily=Lato;fontSource=https%3A%2F%2Ffonts.googleapis.com%2Fcss%3Ffamily%3DLato;" parent="1" vertex="1">
          <mxGeometry x="1176" y="1378.99" width="40" height="20" as="geometry" />
        </mxCell>
        <mxCell id="16p-zsdsdj_W6NwrwIpp-56" value="add" style="rounded=1;whiteSpace=wrap;html=1;fontSize=38;strokeColor=#6c8ebf;fillColor=#dae8fc;fontStyle=1;fontFamily=Lato;fontSource=https%3A%2F%2Ffonts.googleapis.com%2Fcss%3Ffamily%3DLato;opacity=80;" parent="1" vertex="1">
          <mxGeometry x="790" y="934.48" width="120" height="60" as="geometry" />
        </mxCell>
        <mxCell id="16p-zsdsdj_W6NwrwIpp-57" value="add" style="rounded=1;whiteSpace=wrap;html=1;fontSize=38;strokeColor=#6c8ebf;fillColor=#dae8fc;fontColor=#FF3333;fontStyle=1;fontFamily=Lato;fontSource=https%3A%2F%2Ffonts.googleapis.com%2Fcss%3Ffamily%3DLato;opacity=80;" parent="1" vertex="1">
          <mxGeometry x="1260" y="934.48" width="120" height="60" as="geometry" />
        </mxCell>
        <mxCell id="16p-zsdsdj_W6NwrwIpp-58" value="add" style="rounded=1;whiteSpace=wrap;html=1;fontSize=38;strokeColor=#6c8ebf;fillColor=#dae8fc;fontFamily=Lato;fontSource=https%3A%2F%2Ffonts.googleapis.com%2Fcss%3Ffamily%3DLato;" parent="1" vertex="1">
          <mxGeometry x="819" y="1682.99" width="120" height="60" as="geometry" />
        </mxCell>
        <mxCell id="16p-zsdsdj_W6NwrwIpp-59" value="main" style="rounded=1;whiteSpace=wrap;html=1;fontSize=38;strokeColor=#6c8ebf;fillColor=#dae8fc;fontFamily=Lato;fontSource=https%3A%2F%2Ffonts.googleapis.com%2Fcss%3Ffamily%3DLato;" parent="1" vertex="1">
          <mxGeometry x="1269" y="1682.99" width="120" height="60" as="geometry" />
        </mxCell>
        <mxCell id="16p-zsdsdj_W6NwrwIpp-60" value="root" style="ellipse;whiteSpace=wrap;html=1;strokeColor=#82b366;fillColor=#d5e8d4;fontFamily=Lato;fontSource=https%3A%2F%2Ffonts.googleapis.com%2Fcss%3Ffamily%3DLato;fontSize=38;" parent="1" vertex="1">
          <mxGeometry x="1149" y="1170" width="180" height="90" as="geometry" />
        </mxCell>
        <mxCell id="16p-zsdsdj_W6NwrwIpp-61" value="function declaration" style="ellipse;whiteSpace=wrap;html=1;strokeColor=#82b366;fillColor=#d5e8d4;fontFamily=Lato;fontSource=https%3A%2F%2Ffonts.googleapis.com%2Fcss%3Ffamily%3DLato;fontSize=38;" parent="1" vertex="1">
          <mxGeometry x="1389" y="1288.99" width="240" height="130" as="geometry" />
        </mxCell>
        <mxCell id="16p-zsdsdj_W6NwrwIpp-62" value="function declaration" style="ellipse;whiteSpace=wrap;html=1;strokeColor=#82b366;fillColor=#d5e8d4;fontFamily=Lato;fontSource=https%3A%2F%2Ffonts.googleapis.com%2Fcss%3Ffamily%3DLato;fontSize=38;" parent="1" vertex="1">
          <mxGeometry x="819" y="1296" width="240" height="130" as="geometry" />
        </mxCell>
        <mxCell id="16p-zsdsdj_W6NwrwIpp-63" style="edgeStyle=none;rounded=0;orthogonalLoop=1;jettySize=auto;html=1;entryX=0.5;entryY=0;entryDx=0;entryDy=0;fontFamily=Lato;fontSource=https%3A%2F%2Ffonts.googleapis.com%2Fcss%3Ffamily%3DLato;fontSize=38;fontColor=#66FF66;startArrow=none;startFill=0;endArrow=classic;endFill=1;strokeColor=#000000;strokeWidth=2;" parent="1" source="16p-zsdsdj_W6NwrwIpp-64" target="16p-zsdsdj_W6NwrwIpp-58" edge="1">
          <mxGeometry relative="1" as="geometry" />
        </mxCell>
        <mxCell id="16p-zsdsdj_W6NwrwIpp-64" value="name" style="ellipse;whiteSpace=wrap;html=1;strokeColor=#82b366;fillColor=#d5e8d4;fontFamily=Lato;fontSource=https%3A%2F%2Ffonts.googleapis.com%2Fcss%3Ffamily%3DLato;fontSize=38;" parent="1" vertex="1">
          <mxGeometry x="790" y="1520.99" width="180" height="90" as="geometry" />
        </mxCell>
        <mxCell id="16p-zsdsdj_W6NwrwIpp-65" style="edgeStyle=none;rounded=0;orthogonalLoop=1;jettySize=auto;html=1;exitX=0.5;exitY=1;exitDx=0;exitDy=0;entryX=0.5;entryY=0;entryDx=0;entryDy=0;fontFamily=Lato;fontSource=https%3A%2F%2Ffonts.googleapis.com%2Fcss%3Ffamily%3DLato;fontSize=38;fontColor=#66FF66;startArrow=none;startFill=0;endArrow=classic;endFill=1;strokeWidth=2;" parent="1" source="16p-zsdsdj_W6NwrwIpp-66" target="16p-zsdsdj_W6NwrwIpp-59" edge="1">
          <mxGeometry relative="1" as="geometry" />
        </mxCell>
        <mxCell id="16p-zsdsdj_W6NwrwIpp-66" value="name" style="ellipse;whiteSpace=wrap;html=1;strokeColor=#82b366;fillColor=#d5e8d4;fontFamily=Lato;fontSource=https%3A%2F%2Ffonts.googleapis.com%2Fcss%3Ffamily%3DLato;fontSize=38;" parent="1" vertex="1">
          <mxGeometry x="1239" y="1520.99" width="180" height="90" as="geometry" />
        </mxCell>
        <mxCell id="16p-zsdsdj_W6NwrwIpp-67" style="edgeStyle=none;rounded=0;orthogonalLoop=1;jettySize=auto;html=1;exitX=0.5;exitY=0;exitDx=0;exitDy=0;fontFamily=Lato;fontSource=https%3A%2F%2Ffonts.googleapis.com%2Fcss%3Ffamily%3DLato;fontSize=38;fontColor=#66FF66;startArrow=none;startFill=0;endArrow=classic;endFill=1;strokeColor=#FF3333;strokeWidth=1;opacity=80;" parent="1" source="16p-zsdsdj_W6NwrwIpp-14" target="16p-zsdsdj_W6NwrwIpp-14" edge="1">
          <mxGeometry relative="1" as="geometry" />
        </mxCell>
        <mxCell id="16p-zsdsdj_W6NwrwIpp-68" style="edgeStyle=none;rounded=0;orthogonalLoop=1;jettySize=auto;html=1;exitX=0.25;exitY=0;exitDx=0;exitDy=0;fontFamily=Lato;fontSource=https%3A%2F%2Ffonts.googleapis.com%2Fcss%3Ffamily%3DLato;fontSize=38;fontColor=#66FF66;startArrow=none;startFill=0;endArrow=classic;endFill=1;strokeColor=#FF3333;strokeWidth=1;opacity=80;" parent="1" edge="1">
          <mxGeometry relative="1" as="geometry">
            <mxPoint x="1110" y="520.48" as="sourcePoint" />
            <mxPoint x="1110" y="520.48" as="targetPoint" />
          </mxGeometry>
        </mxCell>
        <mxCell id="L7majHYi-ZHCTUcxYu_3-2" value="" style="shape=flexArrow;endArrow=classic;html=1;rounded=0;width=254;endSize=10;" edge="1" parent="1">
          <mxGeometry width="50" height="50" relative="1" as="geometry">
            <mxPoint x="1237" y="1020" as="sourcePoint" />
            <mxPoint x="1237" y="1100" as="targetPoint" />
          </mxGeometry>
        </mxCell>
      </root>
    </mxGraphModel>
  </diagram>
</mxfile>
